# AST/ASF file generated using VICON BodyLanguage
# -----------------------------------------------
:version 1.10
:name VICON
:units
  mass 1.0
  length 0.45
  angle deg
:documentation
   .ast/.asf automatically generated from VICON data using
   VICON BodyBuilder and BodyLanguage model FoxedUp or BRILLIANT.MOD
:root
   order TX TY TZ RX RY RZ
   axis XYZ
   position 0 0 0  
   orientation 0 0 0 
:bonedata
  begin
     id 1 
     name lhipjoint
     direction 0.547975 -0.797114 0.253638 
     length 2.36201 
     axis 0 0 0  XYZ
  end
  begin
     id 2 
     name lfemur
     direction 0.34202 -0.939693 0  
     length 7.69075  
     axis 0 0 20  XYZ
    dof rx ry rz
    limits (-160.0 20.0)
           (-70.0 70.0)
           (-60.0 70.0)
  end
  begin
     id 3 
     name ltibia
     direction 0.34202 -0.939693 0   
     length 7.91399   
     axis 0 0 20   XYZ
    dof rx
    limits (-10.0 170.0)
  end
  begin
     id 4 
     name lfoot
     direction 0.0705293 -0.193778 0.978507   
     length 2.13618   
     axis -90 7.62852e-016 20   XYZ
    dof rx rz
    limits (-45.0 90.0)
           (-70.0 20.0)
  end
  begin
     id 5 
     name ltoes
     direction 1.53592e-011 -4.21925e-011 1   
     length 1.07518   
     axis -90 7.62852e-016 20   XYZ
    dof rx
    limits (-90.0 20.0)
  end
  begin
     id 6 
     name rhipjoint
     direction -0.57 -0.782963 0.249136   
     length 2.4047  
     axis 0 0 0  XYZ 
  end
  begin
     id 7 
     name rfemur
     direction -0.34202 -0.939693 0   
     length 7.51486   
     axis 0 0 -20   XYZ
    dof rx ry rz
    limits (-160.0 20.0)
           (-70.0 70.0)
           (-70.0 60.0)
  end
  begin
     id 8 
     name rtibia
     direction -0.34202 -0.939693 0   
     length 8.08317   
     axis 0 0 -20   XYZ
    dof rx
    limits (-10.0 170.0)
 end
 begin
     id 9 
     name rfoot
     direction -0.104954 -0.281256 0.953876   
     length 2.30343  
     axis -90 -7.62852e-016 -20   XYZ
    dof rx rz
    limits (-45.0 90.0)
           (-20.0 70.0)
  end
  begin
     id 10 
     name rtoes
     direction -1.53556e-011 -4.21922e-011 1   
     length 1.14803   
     axis -90 -7.62852e-016 -20   XYZ
    dof rx
    limits (-90.0 20.0)
  end
  begin
     id 11 
     name lowerback
     direction -0.0152855 0.99353 -0.11254   
     length 2.05311   
     axis 0 0 0   XYZ
    dof rx ry rz
    limits (-20.0 45.0)
           (-30.0 30.0)
           (-30.0 30.0)
  end
  begin
     id 12 
     name upperback
     direction -0.00157509 0.999443 -0.033332   
     length 2.06353   
     axis 0 0 0   XYZ
    dof rx ry rz
    limits (-20.0 45.0)
           (-30.0 30.0)
           (-30.0 30.0)
  end
  begin
     id 13 
     name thorax
     direction 0.00577788 0.999804 0.0189484   
     length 2.08472   
     axis 0 0 0   XYZ
    dof rx ry rz
    limits (-20.0 45.0)
           (-30.0 30.0)
           (-30.0 30.0)
  end
  begin
     id 14 
     name lowerneck
     direction -1.09301e-005 0.994719 0.10264   
     length 1.76249   
     axis 0 0 0   XYZ
    dof rx ry rz
    limits (-20.0 45.0)
           (-30.0 30.0)
           (-30.0 30.0)
  end
  begin
     id 15 
     name upperneck
     direction 0.0495018 0.988526 -0.142706   
     length 1.77897   
     axis 0 0 0   XYZ
    dof rx ry rz
    limits (-20.0 45.0)
           (-30.0 30.0)
           (-30.0 30.0)
  end
  begin
     id 16
     name head
     direction 0.0142736 0.998114 -0.0597101  
     length 1.78934  
     axis 0 0 0   XYZ
    dof rx ry rz
    limits (-20.0 45.0)
           (-30.0 30.0)
           (-30.0 30.0)
  end
  begin
     id 17 
     name lclavicle
     direction 0.918111 0.396107 -0.0130883  
     length 3.37276  
     axis 0 0 0   XYZ
    dof ry rz
    limits (-20.0 10.0)
           (0.0 20.0)
  end
  begin
     id 18 
     name lhumerus
     direction 1 -4.48975e-011 -3.26108e-027   
     length 5.34298   
     axis 180 -30 -90   XYZ
    dof rx ry rz
    limits (-60.0 90.0)
           (-90.0 90.0)
           (-90.0 90.0)
  end
  begin
     id 19
     name lradius
     direction 1 -4.48964e-011 -8.84413e-028   
     length 3.67262   
     axis 180 -30 -90   XYZ
    dof rx
    limits (-10.0 170.0)
  end
  begin
     id 20
     name lwrist
     direction 1 -4.48991e-011 -1.24264e-027   
     length 1.83631   
     axis -2.17013e-015 90 90   XYZ
    dof ry
    limits (-180.0 0.0)
 end
  begin
     id 21 
     name lhand
     direction 1 -4.48855e-011 -2.48528e-027   
     length 0.599298   
     axis 1.58582e-015 90 90   XYZ
    dof rx rz
    limits (-90.0 90.0)
           (-45.0 45.0)
  end
  begin
     id 22 
     name lfingers
     direction 1 -4.48811e-011 -4.97056e-027   
     length 0.48317   
     axis 3.17164e-015 90 90   XYZ
    dof rx
    limits (0.0 90.0)
  end
  begin
     id 23
     name lthumb
     direction 0.707107 -6.34882e-011 0.707107   
     length 0.693738   
     axis -90 45 2.85299e-015   XYZ
    dof rx rz
    limits (-45.0 45.0)
           (-45.0 45.0)
  end
  begin
     id 24 
     name rclavicle
     direction -0.920511 0.384752 -0.0680135   
     length 3.43787  
     axis 0 0 0   XYZ 
    dof ry rz
    limits (-10.0 20.0)
           (-20.0 0.0)
  end
  begin
     id 25 
     name rhumerus
     direction -0.999976 -0.00330524 0.00603274  
     length 5.5498   
     axis 180 30 90   XYZ
    dof rx ry rz
    limits (-90.0 60.0)
           (-90.0 90.0)
           (-90.0 90.0)
  end
  begin
     id 26 
     name rradius
     direction -1 -4.48967e-011 8.62438e-027   
     length 3.69401   
     axis 180 30 90   XYZ
    dof rx
    limits (-10.0 170.0)
  end
  begin
     id 27 
     name rwrist
     direction -1 -4.4897e-011 9.54866e-027   
     length 1.84701   
     axis -7.69462e-015 -90 -90   XYZ
    dof ry
    limits (-180.0 0.0)
  end
  begin
     id 28
     name rhand
     direction -1 -4.48982e-011 1.90973e-026   
     length 0.638113   
     axis -1.21857e-014 -90 -90   XYZ
    dof rx rz
    limits (-90.0 90.0)
           (-45.0 45.0)
  end
  begin
     id 29
     name rfingers
     direction -1 -4.48936e-011 3.81946e-026   
     length 0.514463   
     axis -2.43714e-014 -90 -90   XYZ
    dof rx
    limits (0.0 90.0)
  end
  begin
     id 30
     name rthumb
     direction -0.707107 -6.34942e-011 0.707107   
     length 0.738669   
     axis -90 -45 -2.85299e-015   XYZ
    dof rx rz
    limits (-45.0 45.0)
           (-45.0 45.0)
  end
:hierarchy
  begin
    root lhipjoint rhipjoint lowerback
    lhipjoint lfemur
    lfemur ltibia
    ltibia lfoot
    lfoot ltoes
    rhipjoint rfemur
    rfemur rtibia
    rtibia rfoot
    rfoot rtoes
    lowerback upperback
    upperback thorax
    thorax lowerneck lclavicle rclavicle
    lowerneck upperneck
    upperneck head
    lclavicle lhumerus
    lhumerus lradius
    lradius lwrist
    lwrist lhand lthumb
    lhand lfingers
    rclavicle rhumerus
    rhumerus rradius
    rradius rwrist
    rwrist rhand rthumb
    rhand rfingers
  end

#!OML:ASF F:\twosubjects\two\Thursday\Session 1\Rory.ASF
:FULLY-SPECIFIED
:DEGREES
105
root 9.95888 14.1919 14.3096 -149.247 -22.5104 171.917
lowerback 35.902 0.487345 -1.59628
upperback 5.50353 -0.817362 4.67543
thorax -11.982 -0.859478 6.37466
lowerneck -15.6199 -6.52783 -6.45181
upperneck -23.1048 -9.85761 12.4505
head -3.55105 -6.57212 4.88587
rclavicle 5.56597e-014 -1.19271e-014
rhumerus 64.755 -0.870711 -65.2946
rradius 102.265
rwrist -40.5498
rhand -5.21722 21.4203
rfingers 7.12502
rthumb 20.5847 -7.50822
lclavicle 5.56597e-014 -1.19271e-014
lhumerus -0.156509 -45.0982 92.6785
lradius 109.786
lwrist -9.25094
lhand -30.8815 67.6654
lfingers 7.12502
lthumb -4.16872 -97.6043
rfemur -31.4738 -5.76303 -13.7308
rtibia 79.0006
rfoot -26.2406 1.27963
rtoes -41.1195
lfemur -91.1525 18.8714 -27.593
ltibia 67.7917
lfoot 1.12573 -9.40156
ltoes 6.67334
106
root 9.89987 14.2667 14.3006 -149.406 -22.8212 171.681
lowerback 36.737 0.0958729 -1.1103
upperback 5.40823 -1.14071 4.81941
thorax -12.369 -1.02519 6.43568
lowerneck -15.8569 -6.43116 -6.94408
upperneck -22.9672 -9.67935 12.4762
head -3.46626 -6.44887 4.96591
rclavicle 2.38542e-014 -1.66979e-014
rhumerus 64.9134 -0.66416 -65.5266
rradius 102.579
rwrist -41.0534
rhand -5.31797 21.0921
rfingers 7.12502
rthumb 20.4879 -7.84689
lclavicle 2.38542e-014 -1.66979e-014
lhumerus -0.700878 -44.7255 93.426
lradius 109.734
lwrist -9.46396
lhand -30.2287 66.9027
lfingers 7.12502
lthumb -3.53827 -96.853
rfemur -30.7398 -6.3003 -14.3592
rtibia 78.0826
rfoot -25.1556 3.26851
rtoes -41.3925
lfemur -90.3133 17.9858 -27.1898
ltibia 67.5485
lfoot 0.84925 -8.79152
ltoes 5.50725
107
root 9.86413 14.3364 14.2644 -149.038 -22.8497 171.549
lowerback 36.4627 -0.0964879 -1.40164
upperback 5.36627 -1.44708 5.14062
thorax -12.2829 -1.14549 7.06927
lowerneck -16.3891 -6.33302 -7.73825
upperneck -22.313 -9.40395 12.607
head -3.16762 -6.21858 5.092
rclavicle 7.95139e-014 -3.26007e-014
rhumerus 65.0977 0.00322429 -65.9346
rradius 103.028
rwrist -40.7153
rhand -5.06009 20.1598
rfingers 7.12502
rthumb 20.7357 -8.75238
lclavicle 7.95139e-014 -3.26007e-014
lhumerus -0.922792 -44.091 93.7573
lradius 109.498
lwrist -9.72834
lhand -31.3279 70.0013
lfingers 7.12502
lthumb -4.59973 -99.9313
rfemur -30.684 -6.80031 -14.8244
rtibia 77.2422
rfoot -24.039 5.38809
rtoes -40.6415
lfemur -90.065 17.5395 -27.0731
ltibia 67.2606
lfoot 0.504514 -8.40728
ltoes 4.70071
108
root 9.82412 14.3887 14.2318 -148.797 -22.9899 171.497
lowerback 36.2483 -0.023218 -0.969849
upperback 5.42405 -1.19465 5.08906
thorax -12.1672 -1.05169 6.66197
lowerneck -16.4437 -6.61317 -7.31707
upperneck -22.4782 -9.83765 12.5764
head -3.19423 -6.47232 4.9961
rclavicle 5.725e-014 -2.38542e-015
rhumerus 64.7227 -0.927342 -66.4737
rradius 103.378
rwrist -39.7242
rhand -4.64651 20.2635
rfingers 7.12502
rthumb 21.133 -8.60475
lclavicle 5.725e-014 -2.38542e-015
lhumerus -0.507306 -45.302 93.5433
lradius 109.079
lwrist -10.1972
lhand -31.8067 71.4116
lfingers 7.12502
lthumb -5.06213 -101.331
rfemur -30.5267 -7.21547 -15.2111
rtibia 76.4536
rfoot -23.03 7.78471
rtoes -39.4152
lfemur -89.7719 17.0373 -26.8261
ltibia 66.9815
lfoot 0.180533 -8.10211
ltoes 4.22467
109
root 9.78855 14.4409 14.2031 -148.675 -23.0612 171.353
lowerback 36.3623 -0.294129 -0.795277
upperback 5.39999 -1.46911 5.17576
thorax -12.208 -1.18286 6.78278
lowerneck -16.2809 -6.71091 -8.09204
upperneck -22.6941 -9.82063 13.257
head -3.19673 -6.46165 5.35072
rclavicle 3.18055e-015 4.05521e-014
rhumerus 64.8777 -0.610404 -67.1063
rradius 103.372
rwrist -38.7593
rhand -4.16567 20.9594
rfingers 7.12502
rthumb 21.5949 -7.85648
lclavicle 3.18055e-015 4.05521e-014
lhumerus -0.869578 -44.9039 94.0027
lradius 108.898
lwrist -10.2327
lhand -31.9999 70.7661
lfingers 7.12502
lthumb -5.2486 -100.681
rfemur -30.3631 -7.39539 -15.7056
rtibia 75.7468
rfoot -22.1017 10.2039
rtoes -38.1164
lfemur -89.3761 16.6499 -26.729
ltibia 66.7217
lfoot 0.297368 -8.07864
ltoes 6.18491
110
root 9.77925 14.4785 14.1737 -148.123 -22.861 171.23
lowerback 35.9885 -0.109232 -1.16707
upperback 5.43606 -1.3522 5.289
thorax -12.0399 -1.11428 7.04503
lowerneck -16.6744 -6.87988 -8.32249
upperneck -22.5943 -9.98464 13.5906
head -3.05887 -6.54181 5.45891
rclavicle -4.6118e-014 3.73715e-014
rhumerus 65.0562 -0.913263 -67.498
rradius 103.415
rwrist -38.459
rhand -3.61663 21.3435
rfingers 7.12502
rthumb 22.1221 -7.41089
lclavicle -4.6118e-014 3.73715e-014
lhumerus -0.536263 -45.0853 93.8274
lradius 108.49
lwrist -10.0944
lhand -32.0731 70.6471
lfingers 7.12502
lthumb -5.31928 -100.56
rfemur -30.841 -7.4168 -16.2273
rtibia 75.2423
rfoot -21.0321 12.3774
rtoes -35.7699
lfemur -89.6563 16.7736 -27.1947
ltibia 66.4672
lfoot 0.951566 -8.50912
ltoes 9.02304
111
root 9.74617 14.5086 14.144 -147.856 -23.02 170.992
lowerback 35.9464 -0.254757 -0.915983
upperback 5.43444 -1.43907 5.30588
thorax -12.0169 -1.16218 6.96127
lowerneck -16.734 -7.06267 -8.30246
upperneck -22.6782 -10.2254 13.7599
head -3.04065 -6.68165 5.49446
rclavicle -2.70347e-014 -7.15625e-015
rhumerus 65.1128 -1.24665 -67.8682
rradius 103.682
rwrist -39.0892
rhand -3.15732 22.1336
rfingers 7.12502
rthumb 22.563 -6.56787
lclavicle -2.70347e-014 -7.15625e-015
lhumerus -0.304459 -45.2099 93.5079
lradius 108.102
lwrist -10.0562
lhand -31.8318 70.9482
lfingers 7.12502
lthumb -5.08631 -100.867
rfemur -30.4556 -7.47657 -16.8668
rtibia 74.5854
rfoot -19.9526 14.6654
rtoes -32.0753
lfemur -89.5895 16.5143 -27.5256
ltibia 66.265
lfoot 1.43329 -8.69156
ltoes 9.87512
112
root 9.71699 14.5427 14.1098 -147.594 -23.2467 170.852
lowerback 35.4563 -0.36906 -0.740943
upperback 5.587 -1.53247 5.3798
thorax -11.6487 -1.22579 6.95912
lowerneck -16.2283 -7.13448 -7.999
upperneck -23.4436 -10.4278 13.8324
head -3.33931 -6.88169 5.52445
rclavicle 1.59028e-014 4.29375e-014
rhumerus 65.228 -1.67784 -68.3056
rradius 104.078
rwrist -40.0982
rhand -2.66801 22.4302
rfingers 7.12502
rthumb 23.0326 -6.21355
lclavicle 1.59028e-014 4.29375e-014
lhumerus -0.172944 -45.3421 93.3914
lradius 107.709
lwrist -10.1945
lhand -32.1929 70.569
lfingers 7.12502
lthumb -5.43497 -100.479
rfemur -30.0711 -7.51457 -17.297
rtibia 73.9012
rfoot -18.8459 16.9589
rtoes -27.4958
lfemur -89.5114 16.2058 -27.5968
ltibia 66.044
lfoot 1.4152 -8.70436
ltoes 9.23094
113
root 9.69592 14.5744 14.0761 -147.467 -23.4809 170.783
lowerback 34.9437 -0.432878 -0.60084
upperback 5.87051 -1.61075 5.43689
thorax -11.1246 -1.2974 6.9428
lowerneck -15.9897 -7.18319 -7.73279
upperneck -24.104 -10.5844 13.9722
head -3.56754 -7.0571 5.56962
rclavicle 4.92986e-014 8.74653e-015
rhumerus 65.4169 -2.17982 -68.8464
rradius 104.485
rwrist -40.946
rhand -1.94644 21.63
rfingers 7.12502
rthumb 23.7248 -6.92561
lclavicle 4.92986e-014 8.74653e-015
lhumerus 0.513414 -45.5711 92.8564
lradius 107.281
lwrist -10.0906
lhand -32.7823 70.5299
lfingers 7.12502
lthumb -6.00407 -100.425
rfemur -29.6461 -7.50357 -17.5532
rtibia 73.1545
rfoot -18.5128 18.1786
rtoes -26.1086
lfemur -89.2286 15.8219 -27.2218
ltibia 65.8113
lfoot 1.28146 -8.69121
ltoes 8.66325
114
root 9.69361 14.6103 14.0477 -147.225 -23.6441 170.841
lowerback 34.6883 -0.461791 -0.495575
upperback 5.89373 -1.60468 5.42872
thorax -11.0018 -1.29664 6.86244
lowerneck -16.2128 -7.29014 -7.53369
upperneck -23.8548 -10.7012 14.1499
head -3.44064 -7.11439 5.55747
rclavicle -3.65764e-014 1.03368e-014
rhumerus 65.353 -2.51145 -69.45
rradius 104.727
rwrist -41.443
rhand -1.46349 21.1626
rfingers 7.12502
rthumb 24.1879 -7.33219
lclavicle -3.65764e-014 1.03368e-014
lhumerus 0.966221 -45.9353 92.2169
lradius 106.999
lwrist -9.90662
lhand -32.5582 71.2633
lfingers 7.12502
lthumb -5.78763 -101.164
rfemur -29.5146 -7.30817 -17.6049
rtibia 72.407
rfoot -18.8623 18.1917
rtoes -27.4108
lfemur -89.1177 15.5588 -26.5858
ltibia 65.5496
lfoot 1.50064 -8.94594
ltoes 7.62986
115
root 9.6897 14.6607 14.0224 -146.968 -23.9359 170.959
lowerback 34.517 -0.542359 -0.308952
upperback 5.82267 -1.60828 5.52782
thorax -11.0169 -1.29374 6.86731
lowerneck -16.3287 -7.39584 -7.63346
upperneck -23.4809 -10.7274 14.5298
head -3.26427 -7.09253 5.65637
rclavicle 1.74931e-014 -1.03368e-014
rhumerus 65.1677 -2.71184 -69.76
rradius 104.952
rwrist -41.985
rhand -1.29945 21.2676
rfingers 7.12502
rthumb 24.3452 -7.2062
lclavicle 1.74931e-014 -1.03368e-014
lhumerus 1.34083 -46.3127 91.599
lradius 106.467
lwrist -9.65142
lhand -33.2591 71.796
lfingers 7.12502
lthumb -6.46435 -101.677
rfemur -29.3193 -6.99431 -17.5045
rtibia 71.6742
rfoot -19.2051 17.7225
rtoes -27.5702
lfemur -89.0726 15.1975 -25.721
ltibia 65.2923
lfoot 1.94541 -9.365
ltoes 7.49965
